<svg width="337" height="100" viewBox="0 0 337 100" fill="none" xmlns="http://www.w3.org/2000/svg">
<circle cx="50" cy="50" r="50" fill="#FF932F"/>
<path d="M50 25L71.6506 37.5V62.5L50 75L28.3494 62.5V37.5L50 25Z" fill="#DE6B00"/>
<path d="M151.094 53.875H133.406V72H122.438V26.5H152.875V34.9688H133.406V45.4375H151.094V53.875ZM168.062 72H157.5V24H168.062V72ZM185.688 72H175.125V38.1875H185.688V72ZM174.5 29.4688C174.5 27.9688 175.042 26.7396 176.125 25.7812C177.208 24.8229 178.615 24.3438 180.344 24.3438C182.073 24.3438 183.479 24.8229 184.562 25.7812C185.646 26.7396 186.188 27.9688 186.188 29.4688C186.188 30.9688 185.646 32.1979 184.562 33.1562C183.479 34.1146 182.073 34.5938 180.344 34.5938C178.615 34.5938 177.208 34.1146 176.125 33.1562C175.042 32.1979 174.5 30.9688 174.5 29.4688ZM206.5 64.5C207.979 64.5 209.125 64.1042 209.938 63.3125C210.75 62.5 211.146 61.375 211.125 59.9375H221C221 63.6458 219.667 66.6875 217 69.0625C214.354 71.4375 210.938 72.625 206.75 72.625C201.833 72.625 197.958 71.0833 195.125 68C192.292 64.9167 190.875 60.6458 190.875 55.1875V54.75C190.875 51.3333 191.5 48.3229 192.75 45.7188C194.021 43.0938 195.844 41.0833 198.219 39.6875C200.594 38.2708 203.406 37.5625 206.656 37.5625C211.052 37.5625 214.542 38.7812 217.125 41.2188C219.708 43.6562 221 46.9583 221 51.125H211.125C211.125 49.375 210.698 48.0312 209.844 47.0938C208.99 46.1562 207.844 45.6875 206.406 45.6875C203.677 45.6875 202.083 47.4271 201.625 50.9062C201.479 52.0104 201.406 53.5312 201.406 55.4688C201.406 58.8646 201.812 61.2188 202.625 62.5312C203.438 63.8438 204.729 64.5 206.5 64.5ZM239.031 59.4062L236.062 62.375V72H225.531V23.9688H236.062V49.4688L237.125 48.0625L245.062 38.1875H257.688L245.844 52.0938L258.469 72H246.406L239.031 59.4062ZM278.156 62.5C278.156 61.6042 277.688 60.8854 276.75 60.3438C275.812 59.8021 274.031 59.2396 271.406 58.6562C268.781 58.0729 266.615 57.3125 264.906 56.375C263.198 55.4167 261.896 54.2604 261 52.9062C260.104 51.5521 259.656 50 259.656 48.25C259.656 45.1458 260.938 42.5938 263.5 40.5938C266.062 38.5729 269.417 37.5625 273.562 37.5625C278.021 37.5625 281.604 38.5729 284.312 40.5938C287.021 42.6146 288.375 45.2708 288.375 48.5625H277.812C277.812 45.8542 276.385 44.5 273.531 44.5C272.427 44.5 271.5 44.8125 270.75 45.4375C270 46.0417 269.625 46.8021 269.625 47.7188C269.625 48.6562 270.083 49.4167 271 50C271.917 50.5833 273.375 51.0625 275.375 51.4375C277.396 51.8125 279.167 52.2604 280.688 52.7812C285.771 54.5312 288.312 57.6667 288.312 62.1875C288.312 65.2708 286.938 67.7812 284.188 69.7188C281.458 71.6562 277.917 72.625 273.562 72.625C270.667 72.625 268.083 72.1042 265.812 71.0625C263.542 70.0208 261.771 68.6042 260.5 66.8125C259.229 65.0208 258.594 63.1354 258.594 61.1562H268.438C268.479 62.7188 269 63.8646 270 64.5938C271 65.3021 272.281 65.6562 273.844 65.6562C275.281 65.6562 276.354 65.3646 277.062 64.7812C277.792 64.1979 278.156 63.4375 278.156 62.5ZM305.531 29.7812V38.1875H311.094V45.5H305.531V60.9688C305.531 62.2396 305.76 63.125 306.219 63.625C306.677 64.125 307.583 64.375 308.938 64.375C309.979 64.375 310.854 64.3125 311.562 64.1875V71.7188C309.667 72.3229 307.688 72.625 305.625 72.625C302 72.625 299.323 71.7708 297.594 70.0625C295.865 68.3542 295 65.7604 295 62.2812V45.5H290.688V38.1875H295V29.7812H305.531ZM335.719 47.7188L332.25 47.4688C328.938 47.4688 326.812 48.5104 325.875 50.5938V72H315.344V38.1875H325.219L325.562 42.5312C327.333 39.2188 329.802 37.5625 332.969 37.5625C334.094 37.5625 335.073 37.6875 335.906 37.9375L335.719 47.7188Z" fill="white"/>
</svg>
